<svg width="69" height="13" viewBox="0 0 69 13" fill="none" xmlns="http://www.w3.org/2000/svg">
<g clip-path="url(#clip0_8_3323)">
<path d="M1.01803 9.44855C0.339166 8.76118 0 7.91379 0 6.90693C0 5.90006 0.339166 5.05321 1.01803 4.36531C1.69636 3.67794 2.52567 3.33398 3.50543 3.33398C4.48518 3.33398 5.31449 3.67794 5.99282 4.36531C6.67116 5.05267 7.01085 5.90006 7.01085 6.90693V7.37899H1.41567C1.52359 7.94516 1.77079 8.39011 2.15727 8.71386C2.54375 9.03761 2.99349 9.19922 3.50543 9.19922C4.13432 9.19922 4.63775 9.04187 5.01573 8.72715C5.18637 8.60116 5.33469 8.44381 5.46068 8.25508H6.94387C6.75515 8.69579 6.51699 9.06898 6.22939 9.37412C5.49205 10.1115 4.58459 10.4799 3.50596 10.4799C2.5262 10.4799 1.69689 10.1359 1.01856 9.44855H1.01803ZM1.48319 6.23285H5.5282C5.44739 5.78364 5.23369 5.40141 4.88761 5.0867C4.54153 4.77199 4.08063 4.61463 3.50543 4.61463C3.02007 4.61463 2.5884 4.76082 2.21096 5.05267C1.83352 5.34506 1.59057 5.73845 1.48266 6.23231L1.48319 6.23285Z" fill="#9E9E9E"/>
<path d="M7.55078 3.46875H9.03397L10.5172 9.06446H11.3938L12.877 3.46875H14.3602L12.4724 10.3451H9.43852L7.55078 3.46875Z" fill="#9E9E9E"/>
<path d="M15.9165 9.44855C15.2376 8.76118 14.8984 7.91379 14.8984 6.90693C14.8984 5.90006 15.2376 5.05321 15.9165 4.36531C16.5948 3.67794 17.4241 3.33398 18.4039 3.33398C19.3836 3.33398 20.2129 3.67794 20.8913 4.36531C21.5696 5.05267 21.9093 5.90006 21.9093 6.90693V7.37899H16.3136C16.4215 7.94516 16.6687 8.39011 17.0552 8.71386C17.4417 9.03761 17.8914 9.19922 18.4033 9.19922C19.0322 9.19922 19.5357 9.04187 19.9136 8.72715C20.0843 8.60116 20.2326 8.44381 20.3586 8.25508H21.8418C21.6531 8.69579 21.4149 9.06898 21.1273 9.37412C20.39 10.1115 19.4825 10.4799 18.4039 10.4799C17.4241 10.4799 16.5948 10.1359 15.9165 9.44855ZM16.3816 6.23285H20.4266C20.3458 5.78364 20.1321 5.40141 19.786 5.0867C19.44 4.77199 18.9791 4.61463 18.4039 4.61463C17.9185 4.61463 17.4868 4.76082 17.1094 5.05267C16.732 5.34506 16.489 5.73845 16.3811 6.23231L16.3816 6.23285Z" fill="#9E9E9E"/>
<path d="M23.123 10.3443V3.4679H24.5387V4.47902H24.6062C24.7051 4.2903 24.8492 4.11062 25.0379 3.93944C25.451 3.58007 25.9369 3.40039 26.494 3.40039H27.3031V4.74855H26.4265C25.8778 4.74855 25.4265 4.92185 25.0714 5.2674C24.7163 5.61348 24.5387 6.0696 24.5387 6.63576V10.3437H23.123V10.3443Z" fill="#9E9E9E"/>
<path d="M27.707 3.46875H29.1902L30.6734 8.99695H31.415L33.0332 3.46875H34.5164L31.6851 12.9069H30.2019L31.011 10.3451H29.5953L27.7076 3.46875H27.707Z" fill="#9E9E9E"/>
<path d="M40.1045 4.74874L41.0662 3.46756H41.8753V1.98438H43.291V3.46756H45.3807V4.74874H43.291V9.06327H45.4482V10.3439H41.8753V4.74821H40.1045V4.74874Z" fill="#9E9E9E"/>
<path d="M47.2749 9.44855C46.596 8.76118 46.2568 7.91379 46.2568 6.90693C46.2568 5.90006 46.596 5.05321 47.2749 4.36531C47.9537 3.67794 48.7825 3.33398 49.7623 3.33398C50.742 3.33398 51.5713 3.67794 52.2497 4.36531C52.9285 5.05267 53.2677 5.90006 53.2677 6.90693V7.37899H47.672C47.7799 7.94516 48.0271 8.39011 48.4136 8.71386C48.8001 9.03761 49.2493 9.19922 49.7617 9.19922C50.3906 9.19922 50.8941 9.04187 51.272 8.72715C51.4427 8.60116 51.591 8.44381 51.717 8.25508H53.2002C53.0115 8.69579 52.7733 9.06898 52.4857 9.37412C51.7484 10.1115 50.8409 10.4799 49.7623 10.4799C48.7825 10.4799 47.9532 10.1359 47.2749 9.44855ZM47.74 6.23285H51.785C51.7042 5.78364 51.4905 5.40141 51.1444 5.0867C50.7984 4.77199 50.3375 4.61463 49.7623 4.61463C49.2769 4.61463 48.8452 4.76082 48.4678 5.05267C48.0904 5.34506 47.8474 5.73845 47.7395 6.23231L47.74 6.23285Z" fill="#9E9E9E"/>
<path d="M55.0612 9.46875C54.4052 8.79467 54.0771 7.9409 54.0771 6.90693C54.0771 5.87295 54.4052 5.01918 55.0612 4.3451C55.7172 3.67102 56.5353 3.33398 57.5151 3.33398C58.6118 3.33398 59.5059 3.75183 60.1981 4.58805C60.4947 4.97453 60.7015 5.38812 60.8185 5.82829H59.3353C59.2726 5.60395 59.1556 5.40141 58.985 5.22173C58.6346 4.81717 58.1445 4.61516 57.5151 4.61516C56.9574 4.61516 56.4928 4.82621 56.1196 5.24884C55.7464 5.67147 55.5598 6.22434 55.5598 6.90746C55.5598 7.59057 55.7464 8.14345 56.1196 8.56608C56.4928 8.9887 56.9574 9.19975 57.5151 9.19975C58.1626 9.19975 58.6702 8.99774 59.0387 8.59319C59.2003 8.4135 59.322 8.21149 59.4028 7.98662H60.8185C60.7015 8.44487 60.4947 8.86325 60.1981 9.24069C59.515 10.0679 58.6208 10.4809 57.5151 10.4809C56.5353 10.4809 55.7172 10.1439 55.0612 9.46981V9.46875Z" fill="#9E9E9E"/>
<path d="M61.9639 10.3444V0.90625H63.3795V4.41168H63.4471C63.555 4.23199 63.7214 4.05231 63.9462 3.87263C64.4316 3.51326 64.9845 3.33304 65.6043 3.33304C66.4581 3.33304 67.121 3.58024 67.5931 4.07464C68.0651 4.56903 68.3006 5.2883 68.3006 6.2319V10.3444H66.885V6.36693C66.885 5.76462 66.7521 5.32232 66.4873 5.03897C66.2221 4.75563 65.8154 4.61422 65.2673 4.61422C64.7192 4.61422 64.2673 4.80081 63.9122 5.174C63.5571 5.54719 63.3795 6.03468 63.3795 6.63699V10.345H61.9639V10.3444Z" fill="#9E9E9E"/>
<path d="M39.7708 3.46875H41.254L38.4226 12.9069H36.9395L39.7708 3.46875Z" fill="#9E9E9E"/>
<path d="M36.4017 3.46875H37.8849L35.0535 12.9069H33.5703L36.4017 3.46875Z" fill="#9E9E9E"/>
</g>
<defs>
<clipPath id="clip0_8_3323">
<rect width="68.3016" height="12" fill="white" transform="translate(0 0.90625)"/>
</clipPath>
</defs>
</svg>
