<svg width="1430" height="375" viewBox="0 0 1430 375" fill="none" xmlns="http://www.w3.org/2000/svg">
<path d="M0 68.6193V4.9905H299.422V68.6193H187.807V370.01H111.616V68.6193H0Z" fill="#4B6A5A"/>
<path d="M317.402 370.01V4.9905H394.483V155.596H550.958V4.9905H627.861V370.01H550.958V219.225H394.483V370.01H317.402Z" fill="#4B6A5A"/>
<path d="M737.163 4.9905V370.01H660.082V4.9905H737.163Z" fill="#4B6A5A"/>
<path d="M1074.19 4.9905V370.01H1007.61L849.001 140.269H846.331V370.01H769.25V4.9905H836.896L994.262 234.553H997.466V4.9905H1074.19Z" fill="#4B6A5A"/>
<path d="M1348.29 122.98C1345.8 114.306 1342.3 106.642 1337.79 99.9881C1333.28 93.2153 1327.76 87.5119 1321.23 82.8779C1314.82 78.125 1307.47 74.501 1299.16 72.0057C1290.97 69.5105 1281.89 68.2629 1271.92 68.2629C1253.29 68.2629 1236.91 72.8969 1222.79 82.1649C1208.79 91.433 1197.87 104.919 1190.03 122.624C1182.2 140.209 1178.29 161.716 1178.29 187.144C1178.29 212.571 1182.14 234.197 1189.86 252.02C1197.57 269.843 1208.49 283.448 1222.61 292.835C1236.73 302.103 1253.41 306.737 1272.63 306.737C1290.08 306.737 1304.97 303.648 1317.32 297.469C1329.78 291.172 1339.27 282.319 1345.8 270.913C1352.44 259.506 1355.77 246.019 1355.77 230.454L1371.43 232.771H1277.44V174.667H1430V220.651C1430 252.733 1423.24 280.299 1409.71 303.351C1396.18 326.283 1377.54 343.988 1353.81 356.464C1330.07 368.821 1302.9 375 1272.28 375C1238.1 375 1208.07 367.455 1182.2 352.365C1156.33 337.155 1136.16 315.589 1121.68 287.666C1107.32 259.625 1100.14 226.355 1100.14 187.856C1100.14 158.27 1104.41 131.892 1112.95 108.721C1121.62 85.4325 1133.72 65.7082 1149.27 49.5485C1164.82 33.3888 1182.91 21.0908 1203.56 12.6545C1224.21 4.21816 1246.58 0 1270.68 0C1291.33 0 1310.55 3.02995 1328.35 9.08984C1346.15 15.0309 1361.94 23.4672 1375.71 34.3988C1389.59 45.3303 1400.92 58.3413 1409.71 73.4316C1418.49 88.403 1424.13 104.919 1426.62 122.98H1348.29Z" fill="#4B6A5A"/>
</svg>
